<svg xmlns="http://www.w3.org/2000/svg" width="611.993" height="611.994" viewBox="0 0 611.993 611.994">&amp;quot;<path fill="#252525" d="M572.188 53.58H40.138c-11.28 0-20.897 3.963-28.525 11.888C3.977 73.464 0 83.088 0 94.34v423.95c0 10.97 3.9 20.664 11.612 28.52 7.543 7.713 17.252 11.604 28.525 11.604h532.05c11.28 0 20.65-3.892 28.193-11.605 7.713-7.855 11.612-17.55 11.612-28.52V94.34c.008-22.503-17.244-40.76-39.804-40.76zm3.32 464.71c0 2.336-1 3.326-3.32 3.326H40.138c-2.32 0-3.32-.99-3.32-3.325V150.104L292.896 411.79c3.61 3.68 7.96 5.308 12.936 5.308h.666c5.64 0 10-1.628 13.602-5.308l255.41-261.687V518.29zm0-420.624L306.494 373.01 36.82 97.666V94.34c0-2.618.997-3.963 3.318-3.963h532.05c2.32 0 3.32 1.345 3.32 3.963v3.326z"/></svg>