<svg xmlns="http://www.w3.org/2000/svg" width="563.432" height="563.432" viewBox="0 0 563.432 563.432" fill="#FFF"><path d="M532.832 0H30.6C13.703 0 0 13.703 0 30.6v502.232c0 16.896 13.703 30.6 30.6 30.6h502.232c16.897 0 30.6-13.703 30.6-30.6V30.6c0-16.904-13.697-30.6-30.6-30.6zm-15.086 150.785c-4.376 4.963-8.972 9.706-13.782 14.223-10.66 10-20.202 19.774-20.135 23.385.035 1.92.054 4.1.054 6.53 0 26.965-3.94 53.875-11.823 80.735-7.882 26.855-19.86 52.626-35.93 77.302-16.077 24.682-35.21 46.506-57.4 65.484-22.19 18.984-48.947 34.125-80.264 45.422-31.315 11.305-64.816 16.953-100.484 16.953-47.18 0-90.992-10.59-131.445-31.776-12.95-6.78-17.448-12.693-10.747-12.363 3.862.19 7.913.282 12.148.282 37.632 0 71.953-9.3 102.975-27.918 12.534-7.52 9.712-14.822-4.345-18.826-11.56-3.293-22.35-8.715-32.37-16.254-9.846-7.412-17.924-15.992-24.24-25.74-7.95-12.27-7.007-23.19-1.763-22.748 3.317.28 6.487.422 9.517.422 4.468 0 8.917-.287 13.335-.857 7.32-.948 1.218-4.57-11.88-11.058-12.422-6.15-23.328-14.885-32.716-26.193-15.244-18.35-22.863-39.665-22.863-63.925v-.624s9.278 4.927 21.94 8.483c12.663 3.556 14.052-2.246 4.958-12.234-5.41-5.938-10.123-12.572-14.144-19.897-8.09-14.725-12.13-30.69-12.13-47.907 0-9.13 1.146-17.932 3.428-26.39 3.813-14.112 17.644-15.005 27.858-4.56 21.383 21.874 46.06 40.02 74.015 54.44 28.184 14.54 57.933 24.026 89.237 28.445 14.474 2.045 25.19-2.57 24.492-8.94-.43-3.91-.643-7.772-.643-11.573 0-27.79 9.798-51.487 29.4-71.09 19.596-19.596 43.292-29.394 71.083-29.394 19.842 0 37.56 4.94 53.14 14.823 12.345 7.827 32.002 14.847 45.857 10.196 4.945-1.66 9.816-3.513 14.615-5.563 13.44-5.742 20.3-.38 12.393 11.915-3.525 5.483-7.59 10.563-12.18 15.227-10.25 10.416-8.952 15.14 5.222 11.56 2.32-.586 4.64-1.217 6.958-1.89 14.04-4.1 18.324.925 8.66 11.893z"/></svg>