<svg xmlns="http://www.w3.org/2000/svg" width="32" height="32" viewBox="0 0 32 32"><path fill="#444" d="M26.852 15.28l-9.848-9.847c-.567-.567-1.487-.567-2.054 0l-2.045 2.045 2.594 2.594c.602-.204 1.293-.067 1.774.413.483.483.62 1.18.41 1.786l2.5 2.5c.605-.208 1.303-.073 1.786.41.675.676.675 1.77 0 2.445s-1.77.675-2.445 0c-.508-.508-.633-1.254-.376-1.88l-2.333-2.332v6.136c.164.08.32.19.457.326.675.675.675 1.77 0 2.445-.675.676-1.77.676-2.444 0-.675-.675-.675-1.77 0-2.444.167-.167.36-.293.566-.377v-6.194c-.206-.084-.4-.21-.566-.377-.51-.512-.634-1.263-.372-1.89L11.9 8.482 5.15 15.234c-.567.568-.567 1.488 0 2.055l9.85 9.847c.566.567 1.485.567 2.053 0l9.803-9.802c.567-.567.567-1.488 0-2.055z"/></svg>