<svg xmlns="http://www.w3.org/2000/svg" width="32" height="32" viewBox="0 0 32 32"><path fill="#444" d="M6.368 15.67H3.715c-.068 0-.124.056-.124.125v1.296c0 .07.056.125.125.125H4.75v1.612s-.232.078-.874.078c-.758 0-1.817-.278-1.817-2.604 0-2.327 1.1-2.633 2.136-2.633.896 0 1.282.157 1.527.234.077.025.147-.052.147-.12l.296-1.254c0-.032-.01-.07-.047-.097-.1-.07-.71-.412-2.246-.412-1.77 0-3.588.753-3.588 4.375s2.08 4.16 3.832 4.16c1.45 0 2.332-.62 2.332-.62.036-.02.04-.07.04-.093v-4.045c0-.07-.056-.124-.124-.124zm13.415-3.343H18.29c-.07 0-.124.056-.124.124v2.887h-2.328V12.45c0-.068-.056-.123-.123-.123H14.22c-.066 0-.12.056-.12.124v7.815c0 .07.054.125.12.125h1.495c.068 0 .123-.056.123-.125v-3.342h2.328l-.005 3.342c0 .07.056.124.123.124h1.494c.07 0 .122-.057.122-.125l.004-7.815c0-.07-.055-.124-.122-.124zm-11.63.177c-.533 0-.964.435-.964.972s.43.973.962.973.963-.436.963-.974c0-.537-.43-.972-.963-.972zm.856 2.507c0-.067-.056-.124-.123-.124h-1.49c-.07 0-.128.07-.128.14v5.167c0 .15.093.197.216.197h1.342c.146 0 .185-.072.185-.2v-1.572c-.002-.2-.002-3.607-.002-3.607zm16.554-.112h-1.482c-.068 0-.122.056-.122.125v3.83s-.376.278-.912.278c-.534 0-.677-.24-.677-.766v-3.342c0-.07-.055-.125-.122-.125h-1.503c-.07 0-.123.056-.123.125v3.595s.866 1.935 2.057 1.935c.976 0 1.766-.54 1.766-.54s.037.284.055.317c.017.033.06.067.11.067h.95c.07 0 .124-.056.124-.125l.004-5.25c-.003-.068-.06-.124-.126-.124zm4.058-.176c-.842 0-1.414.376-1.414.376v-2.646c0-.07-.056-.124-.122-.124h-1.5c-.066 0-.12.056-.12.124l-.005 7.815c0 .07.057.124.124.124h1.044c.046 0 .08-.023.108-.065s.063-.36.063-.36.61.58 1.77.58c1.362 0 2.142-.69 2.142-3.1 0-2.408-1.247-2.723-2.09-2.723zm-.584 4.404c-.514-.016-.862-.25-.862-.25v-2.475s.344-.21.767-.248c.534-.047 1.05.114 1.05 1.387-.003 1.34-.235 1.606-.954 1.585zm-15.714-.03c-.066 0-.233.027-.405.027-.55 0-.738-.256-.738-.587v-2.198h1.12c.07 0 .124-.055.124-.125V15.01c0-.07-.054-.126-.123-.126h-1.12l-.003-1.48c0-.056-.03-.084-.094-.084H10.56c-.06 0-.092.026-.092.083v1.53s-.765.184-.817.2-.087.062-.087.118v.963c0 .07.056.125.123.125h.782v2.312c0 1.717 1.205 1.886 2.018 1.886.37 0 .815-.12.89-.147.044-.017.07-.063.07-.112V19.22c0-.068-.058-.124-.122-.124z"/></svg>