<svg xmlns="http://www.w3.org/2000/svg" width="32" height="32" viewBox="0 0 32 32"><path fill="#444" d="M15.998 28.895c-.337 0-.673-.088-.97-.26l-3.085-1.825c-.46-.257-.235-.35-.083-.402.614-.213.74-.262 1.394-.635.07-.038.16-.024.23.018l2.37 1.408c.088.048.208.048.288 0l9.24-5.333c.087-.05.142-.15.142-.25V10.95c0-.104-.055-.202-.143-.255l-9.236-5.33c-.086-.05-.2-.05-.285 0l-9.236 5.332c-.09.05-.146.152-.146.253v10.666c0 .102.056.198.145.247l2.532 1.462c1.374.687 2.215-.122 2.215-.935V11.86c0-.15.12-.266.27-.266h1.17c.147 0 .268.117.268.266v10.53c0 1.833-.998 2.885-2.736 2.885-.534 0-.955 0-2.13-.58L5.79 23.302c-.598-.345-.97-.992-.97-1.685V10.95c0-.693.372-1.34.97-1.684l9.242-5.34c.585-.33 1.362-.33 1.942 0l9.24 5.34c.6.346.972.992.972 1.684v10.665c0 .693-.372 1.337-.97 1.686l-9.242 5.336c-.296.17-.63.26-.973.26zm2.855-7.348c-4.045 0-4.892-1.857-4.892-3.414 0-.148.12-.266.267-.266h1.195c.133 0 .245.096.265.226.18 1.216.717 1.83 3.164 1.83 1.947 0 2.776-.44 2.776-1.472 0-.595-.234-1.036-3.26-1.333-2.528-.25-4.093-.81-4.093-2.83 0-1.866 1.572-2.978 4.207-2.978 2.96 0 4.425 1.026 4.61 3.232.008.075-.02.148-.07.205-.05.054-.12.086-.196.086h-1.2c-.124 0-.233-.088-.26-.21-.287-1.28-.987-1.688-2.885-1.688-2.127 0-2.374.74-2.374 1.295 0 .673.292.87 3.16 1.248 2.84.375 4.19.907 4.19 2.902 0 2.014-1.677 3.167-4.605 3.167z"/></svg>