<svg xmlns="http://www.w3.org/2000/svg" width="32" height="32" viewBox="0 0 32 32"><path fill="#444" d="M5.304 16.563c0-.095-.05-.183-.132-.23l-2.192-1.26c-.037-.023-.08-.034-.12-.036h-.024c-.042.002-.083.013-.12.035l-2.192 1.26c-.082.048-.133.136-.133.23l.006 3.397c0 .046.025.09.066.113.04.024.09.024.132 0l1.302-.746c.082-.05.132-.135.132-.23V17.51c0-.094.05-.182.132-.23l.555-.318c.04-.024.086-.035.133-.035.045 0 .09.012.132.035l.554.32c.082.046.132.134.132.228v1.587c0 .095.05.18.133.23l1.3.746c.042.024.093.024.133 0 .04-.023.066-.067.066-.114l.003-3.397zm11.702-4.67c-.04-.022-.09-.02-.13.003s-.066.067-.066.114v3.363c0 .033-.018.064-.046.08s-.064.017-.093 0l-.548-.316c-.082-.047-.183-.047-.265 0l-2.192 1.265c-.082.047-.133.135-.133.23v2.53c0 .095.05.182.132.23l2.192 1.265c.082.047.183.047.265 0l2.194-1.266c.082-.047.132-.134.132-.228v-6.31c0-.095-.052-.183-.136-.23l-1.305-.728zm-.203 6.438c0 .025-.012.047-.033.058l-.753.434c-.02.012-.046.012-.066 0l-.752-.434c-.02-.012-.033-.034-.033-.057v-.868c0-.024.013-.046.033-.057l.753-.435c.02-.012.047-.012.067 0l.753.435c.02.012.033.034.033.057v.87zm8.047-.89c.08-.048.132-.135.132-.23v-.613c0-.095-.05-.18-.132-.23l-2.178-1.264c-.082-.048-.183-.048-.265 0l-2.192 1.265c-.082.047-.132.135-.132.23v2.53c0 .094.05.182.134.23l2.178 1.24c.08.046.18.046.26 0l1.317-.73c.04-.024.067-.068.068-.116s-.025-.092-.066-.116l-2.206-1.266c-.04-.023-.066-.067-.066-.115v-.793c0-.047.025-.09.066-.115l.687-.395c.04-.023.09-.023.132 0l.687.395c.04.024.066.067.066.115v.624c0 .047.025.09.066.115s.092.024.133 0l1.31-.762zM9.29 15.09c.083-.047.184-.047.266 0l2.192 1.265c.082.047.132.134.132.23v2.53c0 .096-.05.183-.132.23L9.556 20.61c-.082.048-.183.048-.265 0L7.1 19.346c-.083-.047-.133-.135-.133-.23v-2.53c0-.096.05-.183.132-.23l2.19-1.265zm19.816 5.557c-.075 0-.15-.02-.217-.058l-.69-.41c-.104-.057-.053-.077-.02-.09.137-.047.165-.058.312-.14.015-.01.036-.006.052.003l.53.315c.02.01.046.01.064 0l2.067-1.193c.02-.01.03-.033.03-.056v-2.387c0-.023-.01-.045-.03-.057l-2.067-1.192c-.02-.01-.045-.01-.064 0l-2.066 1.192c-.02.01-.033.034-.033.057v2.386c0 .022.013.043.032.054l.566.327c.307.155.495-.026.495-.208v-2.355c0-.033.027-.06.06-.06h.262c.033 0 .06.027.06.06v2.355c0 .41-.223.645-.612.645-.12 0-.214 0-.476-.13l-.542-.31c-.134-.078-.217-.223-.217-.378v-2.387c0-.155.083-.3.217-.377l2.067-1.194c.13-.074.305-.074.434 0l2.068 1.194c.134.077.217.222.217.377v2.386c0 .154-.083.298-.217.376L29.32 20.59c-.065.037-.14.057-.217.057zm.64-1.643c-.906 0-1.095-.415-1.095-.764 0-.033.027-.06.06-.06h.268c.03 0 .055.023.06.052.04.272.16.41.707.41.435 0 .62-.1.62-.33 0-.132-.05-.23-.728-.297-.565-.056-.915-.18-.915-.633 0-.417.352-.666.94-.666.663 0 .99.23 1.032.723.002.016-.004.032-.016.045s-.027.02-.044.02h-.268c-.028 0-.052-.02-.058-.048-.064-.286-.22-.378-.645-.378-.475 0-.53.165-.53.29 0 .15.064.193.706.278.634.084.936.203.936.65 0 .45-.375.707-1.03.707zm-7.24-1.683c.016-.008.035-.008.05 0l.422.244c.016.01.026.026.026.044v.486c0 .018-.01.035-.026.044l-.42.243c-.017.01-.036.01-.052 0l-.42-.242c-.016-.01-.025-.026-.025-.044v-.486c0-.018.01-.035.026-.044l.42-.243z"/></svg>