<svg xmlns="http://www.w3.org/2000/svg" width="27" height="32" viewBox="0 0 27 32"><path fill="#444" d="M2.944 16.286v10.54h21.08V5.745H2.943v10.54zm11.95-5.208c.23.056.45.124.656.203.452.174 1.065.38 1.476.79.166.166.146.215-.234.76-.224.313-.44.616-.478.665-.05.05-.17-.04-.566-.224-.794-.372-1.522-.71-2.323-.71-1.122 0-1.698.428-1.698 1.277 0 .78.537 1.132 2.44 1.62 2.508.644 3.396 1.493 3.357 3.23-.025 1.104-.863 2.233-1.84 2.66-1.11.487-2.414.42-3.55.067-.624-.193-1.273-.455-1.84-.78-.21-.12-.5-.3-.68-.48-.197-.197-.096-.235.083-.462.137-.185.38-.478.537-.654l.273-.332.654.44c.948.633 1.62.858 2.577.868.947.01 1.425-.185 1.776-.703.185-.263.224-.428.176-.73-.07-.586-.528-.957-1.592-1.27-2.342-.703-2.752-.85-3.123-1.113-.468-.342-.84-.81-.995-1.27-.156-.467-.137-1.453.05-1.98.688-1.958 3.045-2.314 4.865-1.87z"/></svg>