<svg xmlns="http://www.w3.org/2000/svg" width="32" height="32" viewBox="0 0 32 32"><path fill="#444" d="M25.436 11.66l-.393.784-.052-.092c-.085-.15-.273-.43-.377-.558-.28-.348-.66-.603-1.046-.7-.155-.037-.456-.038-.597 0-.275.075-.536.236-.78.482-.29.292-.53.683-.73 1.19-.218.555-.33 1.102-.366 1.816-.04.776.067 1.53.31 2.183.062.16.144.353.15.347.002-.002-.004-.043-.013-.092-.057-.304-.08-.92-.053-1.358.03-.456.118-.888.29-1.418.176-.548.385-.908.724-1.257.343-.35.65-.505 1.052-.528.288-.016.51.056.83.27.303.202.585.522.814.926.035.06.067.106.072.1.018-.02.777-1.484.782-1.507.004-.02-.2-1.313-.215-1.36-.002-.006-.18.34-.397.77zm-19.563-.69c.003.015.718 2.428 1.588 5.364l1.582 5.338h.14l.99-3.315c.545-1.824.994-3.316.997-3.316s.45 1.493.995 3.317l.99 3.315h.14l1.36-4.596C16 12.54 16.02 12.48 16.08 12.373l.063-.108h2.245l-.04.068-.928 1.606-.89 1.535v.64h.35c.37 0 .527.01.714.047.69.14 1.138.595 1.3 1.324.092.404.102.9.03 1.32-.11.663-.44 1.225-.844 1.44-.16.087-.24.104-.465.102-.172 0-.21-.005-.31-.03-.27-.074-.447-.178-.66-.395-.21-.21-.355-.43-.497-.744-.036-.08-.063-.13-.073-.126-.014.004-.877.36-1.013.418l-.057.024.048.133c.293.82.83 1.473 1.476 1.796.305.154.596.23.952.25.63.036 1.198-.126 1.66-.477.13-.1.36-.323.468-.458.43-.53.68-1.133.782-1.883.035-.256.044-.797.018-1.067-.106-1.107-.58-1.98-1.348-2.482-.148-.096-.386-.215-.566-.28-.075-.03-.142-.057-.146-.06-.005-.006.43-.767.968-1.694l.978-1.685v-.648h-5.214l-.96 3.26c-.526 1.79-.96 3.258-.963 3.258s-.412-1.377-.905-3.06l-.958-3.26-.06-.198h-.696c-.657 0-.695 0-.69.02.005.012.148.492.318 1.066l.31 1.044-.646 2.194c-.356 1.207-.65 2.193-.653 2.193s-.438-1.468-.965-3.26l-.958-3.26h-1.39l.005.027zm14.733 7.507c0 .02.194.587.245.718.07.18.252.55.363.742.2.343.45.676.703.93.418.42.835.65 1.346.74.12.02.548.02.667 0 .354-.063.666-.193.94-.394.475-.347.885-.823 1.19-1.38l.072-.133-.1-.52c-.055-.286-.1-.522-.105-.525-.002-.002-.054.08-.116.183-.143.243-.31.494-.412.622-.044.055-.17.19-.278.298-.305.306-.542.485-.825.618-.42.2-.733.267-1.123.24-.28-.02-.437-.055-.675-.15-.346-.14-.608-.32-.956-.66-.308-.304-.44-.488-.795-1.102-.135-.233-.14-.244-.14-.23z"/></svg>