<svg xmlns="http://www.w3.org/2000/svg" width="32" height="32" viewBox="0 0 32 32"><path fill="#444" d="M16.83 15.028l-.07-.19c-.015.01-.032.02-.05.027l.12.162zm.506-.404l-.132-.15-.038.04.17.11zm.326-.56l-.178-.094-.02.053.198.04zm.1-.64l-.2-.024c0 .02.003.038.003.057l.198-.034zm-.135-.635l-.195.05.022.052.173-.103zm-2.65 2.118l.138-.145c-.016-.01-.03-.023-.045-.034l-.092.178zm1.234.315l.005-.2c-.02.002-.037.006-.056.007l.05.193zm-.646-.042l.077-.185-.054-.014-.022.2zm-.45-.417c.143.098.302.17.473.218l.088-.805-.56.588zm1.63-2.89l-.11.168c.016.01.033.017.05.026l.058-.193zm-2.268.712l.157.124.03-.05-.188-.075zm-.218.61l.19.06.01-.057-.2-.003zm.018.648l.2-.014-.014-.056-.187.07zm2.995-1.595l-.162.118.038.042.125-.16zm-2.744 2.193l.18-.084-.03-.048-.15.133zm1.115.555c.117.027.236.043.36.043.054 0 .107-.003.16-.008l-.21-.784-.31.75zm.475-3.283l-.04.198c.018 0 .037 0 .056.003l-.014-.2zm-.644.077l.034.197.054-.017-.086-.18zm-.57.304l.1.172.046-.034-.147-.138zm1.86 2.746c.154-.085.29-.196.406-.325l-.68-.437.275.762zm-.284-1.297c0 .263-.213.476-.476.476s-.476-.214-.476-.477.213-.476.476-.476.476.213.476.476zm-2 .286c.04.17.11.333.2.478l.61-.536-.81.057zm-.026-.576c-.01.07-.017.144-.017.218 0 .103.01.204.03.302l.762-.28-.775-.24zm.62 1.475l.37-.72-.733.346c.1.144.222.27.362.373zm.93.912c1.197 0 2.17-.973 2.17-2.17s-.974-2.17-2.17-2.17-2.17.974-2.17 2.17c0 1.197.974 2.17 2.17 2.17zm0-3.972c.994 0 1.802.81 1.802 1.802s-.81 1.802-1.802 1.802-1.802-.808-1.802-1.802.81-1.802 1.802-1.802zm-1.367 1.04c-.084.15-.143.314-.175.49l.81.012-.635-.503zm7.256 9.827C17.76 21.51 16 23.604 16 23.604c-.02 2.095 2.846 5.85 6.363 6.304s5.77-1.225 5.77-1.225-2.114-5.118-6.244-6.146zm-11.78 0c-4.13 1.027-6.243 6.146-6.243 6.146s2.253 1.68 5.77 1.225c3.517-.454 6.383-4.21 6.363-6.304 0 0-1.76-2.095-5.89-1.067zm6.106-7.515c.176-.024.343-.078.495-.156l-.477-.654-.018.81zM4.5 18.21h23l.712-2.135h-3.378l.662-3.826.88-5.096S24.05 2.586 16.052 2.586c-9.722 0-10.427 4.568-10.427 4.568l1.543 8.92h-3.38L4.5 18.21zM16 10.975c1.377 0 2.497 1.12 2.497 2.497 0 1.376-1.12 2.495-2.497 2.495s-2.497-1.12-2.497-2.495c0-1.377 1.12-2.497 2.497-2.497zm1.563 2.424c-.008-.178-.046-.35-.11-.508l-.694.415.803.092zm-.08.57c.054-.156.083-.324.083-.498v-.015l-.8.137.718.376zm-.28.503c.112-.133.2-.285.262-.45l-.794-.16.534.61zm.23-1.633c-.072-.16-.17-.306-.287-.433l-.497.637.783-.205zm-.325-.474c-.122-.123-.266-.224-.423-.3l-.234.775.658-.473zm-2.107-.1c-.133.112-.247.246-.337.395l.75.306-.41-.7zm1.073-.357c-.025-.002-.05-.005-.073-.005-.154 0-.302.023-.442.065l.35.732.166-.792zm-.57.077c-.166.056-.32.14-.457.245l.59.555-.132-.8zm1.13.053c-.156-.07-.325-.114-.503-.128l.062.807.44-.68z"/></svg>